<mxfile host="app.diagrams.net" agent="Mozilla/5.0 (X11; Linux x86_64; rv:132.0) Gecko/20100101 Firefox/132.0" version="24.9.1">
  <diagram name="Page-1" id="G59CYE2ryUjGFPIt_PXo">
    <mxGraphModel dx="936" dy="427" grid="0" gridSize="10" guides="1" tooltips="1" connect="1" arrows="1" fold="1" page="0" pageScale="1" pageWidth="850" pageHeight="1100" math="0" shadow="0">
      <root>
        <mxCell id="0" />
        <mxCell id="1" parent="0" />
        <mxCell id="FtLIaecBliiWp28A2eXK-8" style="edgeStyle=none;curved=1;rounded=0;orthogonalLoop=1;jettySize=auto;html=1;exitX=0.75;exitY=1;exitDx=0;exitDy=0;fontSize=12;startSize=8;endSize=8;" edge="1" parent="1" source="FtLIaecBliiWp28A2eXK-1" target="FtLIaecBliiWp28A2eXK-6">
          <mxGeometry relative="1" as="geometry" />
        </mxCell>
        <mxCell id="FtLIaecBliiWp28A2eXK-9" style="edgeStyle=none;curved=1;rounded=0;orthogonalLoop=1;jettySize=auto;html=1;exitX=0.25;exitY=1;exitDx=0;exitDy=0;fontSize=12;startSize=8;endSize=8;" edge="1" parent="1" source="FtLIaecBliiWp28A2eXK-1" target="FtLIaecBliiWp28A2eXK-5">
          <mxGeometry relative="1" as="geometry" />
        </mxCell>
        <mxCell id="FtLIaecBliiWp28A2eXK-10" style="edgeStyle=none;curved=1;rounded=0;orthogonalLoop=1;jettySize=auto;html=1;exitX=0.25;exitY=0;exitDx=0;exitDy=0;entryX=0.5;entryY=1;entryDx=0;entryDy=0;fontSize=12;startSize=8;endSize=8;" edge="1" parent="1" source="FtLIaecBliiWp28A2eXK-1" target="FtLIaecBliiWp28A2eXK-4">
          <mxGeometry relative="1" as="geometry" />
        </mxCell>
        <mxCell id="FtLIaecBliiWp28A2eXK-11" style="edgeStyle=none;curved=1;rounded=0;orthogonalLoop=1;jettySize=auto;html=1;exitX=0;exitY=0.25;exitDx=0;exitDy=0;entryX=1;entryY=0.5;entryDx=0;entryDy=0;fontSize=12;startSize=8;endSize=8;" edge="1" parent="1" source="FtLIaecBliiWp28A2eXK-1" target="FtLIaecBliiWp28A2eXK-3">
          <mxGeometry relative="1" as="geometry" />
        </mxCell>
        <mxCell id="FtLIaecBliiWp28A2eXK-13" style="edgeStyle=none;curved=1;rounded=0;orthogonalLoop=1;jettySize=auto;html=1;exitX=0;exitY=0.5;exitDx=0;exitDy=0;entryX=1;entryY=0.5;entryDx=0;entryDy=0;fontSize=12;startSize=8;endSize=8;" edge="1" parent="1" source="FtLIaecBliiWp28A2eXK-1" target="FtLIaecBliiWp28A2eXK-12">
          <mxGeometry relative="1" as="geometry" />
        </mxCell>
        <mxCell id="FtLIaecBliiWp28A2eXK-1" value="&lt;div&gt;User&lt;/div&gt;" style="whiteSpace=wrap;html=1;align=center;" vertex="1" parent="1">
          <mxGeometry x="150" y="182" width="104" height="38" as="geometry" />
        </mxCell>
        <mxCell id="FtLIaecBliiWp28A2eXK-7" style="edgeStyle=none;curved=1;rounded=0;orthogonalLoop=1;jettySize=auto;html=1;fontSize=12;startSize=8;endSize=8;entryX=0.5;entryY=1;entryDx=0;entryDy=0;" edge="1" parent="1" source="FtLIaecBliiWp28A2eXK-1" target="FtLIaecBliiWp28A2eXK-2">
          <mxGeometry relative="1" as="geometry">
            <mxPoint x="200" y="146" as="targetPoint" />
            <mxPoint x="213" y="171" as="sourcePoint" />
          </mxGeometry>
        </mxCell>
        <mxCell id="FtLIaecBliiWp28A2eXK-2" value="&lt;u&gt;ID&lt;/u&gt;" style="ellipse;whiteSpace=wrap;html=1;align=center;" vertex="1" parent="1">
          <mxGeometry x="224" y="77" width="100" height="40" as="geometry" />
        </mxCell>
        <mxCell id="FtLIaecBliiWp28A2eXK-3" value="&lt;div&gt;&lt;u&gt;E-Mail&lt;/u&gt;&lt;/div&gt;" style="ellipse;whiteSpace=wrap;html=1;align=center;" vertex="1" parent="1">
          <mxGeometry x="-7" y="77" width="100" height="40" as="geometry" />
        </mxCell>
        <mxCell id="FtLIaecBliiWp28A2eXK-4" value="Birthday" style="ellipse;whiteSpace=wrap;html=1;align=center;" vertex="1" parent="1">
          <mxGeometry x="124" y="61" width="100" height="40" as="geometry" />
        </mxCell>
        <mxCell id="FtLIaecBliiWp28A2eXK-5" value="Password" style="ellipse;whiteSpace=wrap;html=1;align=center;" vertex="1" parent="1">
          <mxGeometry x="93" y="306" width="100" height="40" as="geometry" />
        </mxCell>
        <mxCell id="FtLIaecBliiWp28A2eXK-6" value="Name" style="ellipse;whiteSpace=wrap;html=1;align=center;" vertex="1" parent="1">
          <mxGeometry x="218" y="318" width="100" height="40" as="geometry" />
        </mxCell>
        <mxCell id="FtLIaecBliiWp28A2eXK-15" style="edgeStyle=none;curved=1;rounded=0;orthogonalLoop=1;jettySize=auto;html=1;exitX=0;exitY=0;exitDx=0;exitDy=0;entryX=1;entryY=0.5;entryDx=0;entryDy=0;fontSize=12;startSize=8;endSize=8;" edge="1" parent="1" source="FtLIaecBliiWp28A2eXK-12" target="FtLIaecBliiWp28A2eXK-14">
          <mxGeometry relative="1" as="geometry" />
        </mxCell>
        <mxCell id="FtLIaecBliiWp28A2eXK-19" style="edgeStyle=none;curved=1;rounded=0;orthogonalLoop=1;jettySize=auto;html=1;exitX=0;exitY=1;exitDx=0;exitDy=0;entryX=1;entryY=0.5;entryDx=0;entryDy=0;fontSize=12;startSize=8;endSize=8;" edge="1" parent="1" source="FtLIaecBliiWp28A2eXK-12">
          <mxGeometry relative="1" as="geometry">
            <mxPoint x="-181" y="197" as="targetPoint" />
          </mxGeometry>
        </mxCell>
        <mxCell id="FtLIaecBliiWp28A2eXK-21" style="edgeStyle=none;curved=1;rounded=0;orthogonalLoop=1;jettySize=auto;html=1;exitX=0.5;exitY=1;exitDx=0;exitDy=0;fontSize=12;startSize=8;endSize=8;entryX=1;entryY=0;entryDx=0;entryDy=0;" edge="1" parent="1" source="FtLIaecBliiWp28A2eXK-12" target="FtLIaecBliiWp28A2eXK-20">
          <mxGeometry relative="1" as="geometry" />
        </mxCell>
        <mxCell id="FtLIaecBliiWp28A2eXK-23" style="edgeStyle=none;curved=1;rounded=0;orthogonalLoop=1;jettySize=auto;html=1;exitX=0.5;exitY=1;exitDx=0;exitDy=0;fontSize=12;startSize=8;endSize=8;" edge="1" parent="1" source="FtLIaecBliiWp28A2eXK-12" target="FtLIaecBliiWp28A2eXK-22">
          <mxGeometry relative="1" as="geometry" />
        </mxCell>
        <mxCell id="FtLIaecBliiWp28A2eXK-12" value="&lt;div&gt;Subscription&lt;/div&gt;" style="ellipse;whiteSpace=wrap;html=1;align=center;" vertex="1" parent="1">
          <mxGeometry x="-100" y="177" width="100" height="40" as="geometry" />
        </mxCell>
        <mxCell id="FtLIaecBliiWp28A2eXK-14" value="&lt;u&gt;ID&lt;/u&gt;" style="ellipse;whiteSpace=wrap;html=1;align=center;" vertex="1" parent="1">
          <mxGeometry x="-262" y="117" width="100" height="40" as="geometry" />
        </mxCell>
        <mxCell id="FtLIaecBliiWp28A2eXK-18" value="type" style="ellipse;shape=doubleEllipse;margin=3;whiteSpace=wrap;html=1;align=center;" vertex="1" parent="1">
          <mxGeometry x="-266" y="236" width="100" height="40" as="geometry" />
        </mxCell>
        <mxCell id="FtLIaecBliiWp28A2eXK-20" value="Start Data" style="ellipse;whiteSpace=wrap;html=1;align=center;" vertex="1" parent="1">
          <mxGeometry x="-259" y="241" width="100" height="40" as="geometry" />
        </mxCell>
        <mxCell id="FtLIaecBliiWp28A2eXK-22" value="due date" style="ellipse;whiteSpace=wrap;html=1;align=center;" vertex="1" parent="1">
          <mxGeometry x="-161" y="284" width="100" height="40" as="geometry" />
        </mxCell>
        <mxCell id="FtLIaecBliiWp28A2eXK-28" style="edgeStyle=none;curved=1;rounded=0;orthogonalLoop=1;jettySize=auto;html=1;exitX=0.5;exitY=0;exitDx=0;exitDy=0;entryX=0.5;entryY=1;entryDx=0;entryDy=0;fontSize=12;startSize=8;endSize=8;" edge="1" parent="1" source="FtLIaecBliiWp28A2eXK-24" target="FtLIaecBliiWp28A2eXK-27">
          <mxGeometry relative="1" as="geometry" />
        </mxCell>
        <mxCell id="FtLIaecBliiWp28A2eXK-30" style="edgeStyle=none;curved=1;rounded=0;orthogonalLoop=1;jettySize=auto;html=1;exitX=0;exitY=0;exitDx=0;exitDy=0;entryX=1;entryY=1;entryDx=0;entryDy=0;fontSize=12;startSize=8;endSize=8;" edge="1" parent="1" source="FtLIaecBliiWp28A2eXK-24" target="FtLIaecBliiWp28A2eXK-29">
          <mxGeometry relative="1" as="geometry" />
        </mxCell>
        <mxCell id="FtLIaecBliiWp28A2eXK-32" style="edgeStyle=none;curved=1;rounded=0;orthogonalLoop=1;jettySize=auto;html=1;exitX=0;exitY=0.5;exitDx=0;exitDy=0;entryX=1;entryY=0.5;entryDx=0;entryDy=0;fontSize=12;startSize=8;endSize=8;" edge="1" parent="1" source="FtLIaecBliiWp28A2eXK-24" target="FtLIaecBliiWp28A2eXK-31">
          <mxGeometry relative="1" as="geometry" />
        </mxCell>
        <mxCell id="FtLIaecBliiWp28A2eXK-24" value="&lt;div&gt;Artist&lt;/div&gt;" style="whiteSpace=wrap;html=1;align=center;" vertex="1" parent="1">
          <mxGeometry x="991" y="602" width="100" height="40" as="geometry" />
        </mxCell>
        <mxCell id="FtLIaecBliiWp28A2eXK-25" value="&lt;u&gt;ID&lt;/u&gt;" style="ellipse;whiteSpace=wrap;html=1;align=center;" vertex="1" parent="1">
          <mxGeometry x="1216" y="627" width="100" height="40" as="geometry" />
        </mxCell>
        <mxCell id="FtLIaecBliiWp28A2eXK-26" style="edgeStyle=none;curved=1;rounded=0;orthogonalLoop=1;jettySize=auto;html=1;exitX=1;exitY=0;exitDx=0;exitDy=0;entryX=0.5;entryY=1;entryDx=0;entryDy=0;fontSize=12;startSize=8;endSize=8;" edge="1" parent="1" source="FtLIaecBliiWp28A2eXK-24" target="FtLIaecBliiWp28A2eXK-25">
          <mxGeometry relative="1" as="geometry">
            <mxPoint x="1162" y="561" as="targetPoint" />
          </mxGeometry>
        </mxCell>
        <mxCell id="FtLIaecBliiWp28A2eXK-27" value="Name" style="ellipse;whiteSpace=wrap;html=1;align=center;" vertex="1" parent="1">
          <mxGeometry x="1184" y="685" width="100" height="40" as="geometry" />
        </mxCell>
        <mxCell id="FtLIaecBliiWp28A2eXK-29" value="&lt;div&gt;Image&lt;/div&gt;" style="ellipse;whiteSpace=wrap;html=1;align=center;" vertex="1" parent="1">
          <mxGeometry x="1054" y="697" width="100" height="40" as="geometry" />
        </mxCell>
        <mxCell id="FtLIaecBliiWp28A2eXK-31" value="Genre" style="ellipse;shape=doubleEllipse;margin=3;whiteSpace=wrap;html=1;align=center;" vertex="1" parent="1">
          <mxGeometry x="922" y="718" width="100" height="40" as="geometry" />
        </mxCell>
        <mxCell id="FtLIaecBliiWp28A2eXK-38" style="edgeStyle=none;curved=1;rounded=0;orthogonalLoop=1;jettySize=auto;html=1;exitX=0.25;exitY=0;exitDx=0;exitDy=0;fontSize=12;startSize=8;endSize=8;" edge="1" parent="1" source="FtLIaecBliiWp28A2eXK-33" target="FtLIaecBliiWp28A2eXK-34">
          <mxGeometry relative="1" as="geometry" />
        </mxCell>
        <mxCell id="FtLIaecBliiWp28A2eXK-39" style="edgeStyle=none;curved=1;rounded=0;orthogonalLoop=1;jettySize=auto;html=1;exitX=0.5;exitY=0;exitDx=0;exitDy=0;entryX=0.5;entryY=1;entryDx=0;entryDy=0;fontSize=12;startSize=8;endSize=8;" edge="1" parent="1" source="FtLIaecBliiWp28A2eXK-33" target="FtLIaecBliiWp28A2eXK-37">
          <mxGeometry relative="1" as="geometry" />
        </mxCell>
        <mxCell id="FtLIaecBliiWp28A2eXK-40" style="edgeStyle=none;curved=1;rounded=0;orthogonalLoop=1;jettySize=auto;html=1;exitX=1;exitY=0;exitDx=0;exitDy=0;entryX=0;entryY=0.5;entryDx=0;entryDy=0;fontSize=12;startSize=8;endSize=8;" edge="1" parent="1" source="FtLIaecBliiWp28A2eXK-33" target="FtLIaecBliiWp28A2eXK-35">
          <mxGeometry relative="1" as="geometry" />
        </mxCell>
        <mxCell id="FtLIaecBliiWp28A2eXK-41" style="edgeStyle=none;curved=1;rounded=0;orthogonalLoop=1;jettySize=auto;html=1;exitX=1;exitY=0.5;exitDx=0;exitDy=0;entryX=0;entryY=0;entryDx=0;entryDy=0;fontSize=12;startSize=8;endSize=8;" edge="1" parent="1" source="FtLIaecBliiWp28A2eXK-33" target="FtLIaecBliiWp28A2eXK-36">
          <mxGeometry relative="1" as="geometry" />
        </mxCell>
        <mxCell id="FtLIaecBliiWp28A2eXK-33" value="Album" style="whiteSpace=wrap;html=1;align=center;" vertex="1" parent="1">
          <mxGeometry x="991" y="280" width="100" height="40" as="geometry" />
        </mxCell>
        <mxCell id="FtLIaecBliiWp28A2eXK-34" value="&lt;u&gt;ID&lt;/u&gt;" style="ellipse;whiteSpace=wrap;html=1;align=center;" vertex="1" parent="1">
          <mxGeometry x="989" y="145" width="100" height="40" as="geometry" />
        </mxCell>
        <mxCell id="FtLIaecBliiWp28A2eXK-35" value="Title" style="ellipse;whiteSpace=wrap;html=1;align=center;" vertex="1" parent="1">
          <mxGeometry x="1178" y="251" width="100" height="40" as="geometry" />
        </mxCell>
        <mxCell id="FtLIaecBliiWp28A2eXK-36" value="Cover" style="ellipse;whiteSpace=wrap;html=1;align=center;" vertex="1" parent="1">
          <mxGeometry x="1160" y="320" width="100" height="40" as="geometry" />
        </mxCell>
        <mxCell id="FtLIaecBliiWp28A2eXK-37" value="Release date" style="ellipse;whiteSpace=wrap;html=1;align=center;" vertex="1" parent="1">
          <mxGeometry x="1128" y="161" width="100" height="40" as="geometry" />
        </mxCell>
        <mxCell id="FtLIaecBliiWp28A2eXK-46" style="edgeStyle=none;curved=1;rounded=0;orthogonalLoop=1;jettySize=auto;html=1;exitX=0;exitY=0;exitDx=0;exitDy=0;entryX=1;entryY=1;entryDx=0;entryDy=0;fontSize=12;startSize=8;endSize=8;" edge="1" parent="1" source="FtLIaecBliiWp28A2eXK-42" target="FtLIaecBliiWp28A2eXK-43">
          <mxGeometry relative="1" as="geometry" />
        </mxCell>
        <mxCell id="FtLIaecBliiWp28A2eXK-47" style="edgeStyle=none;curved=1;rounded=0;orthogonalLoop=1;jettySize=auto;html=1;exitX=0.5;exitY=0;exitDx=0;exitDy=0;fontSize=12;startSize=8;endSize=8;" edge="1" parent="1" source="FtLIaecBliiWp28A2eXK-42">
          <mxGeometry relative="1" as="geometry">
            <mxPoint x="528.558719210167" y="440.65128950507096" as="targetPoint" />
          </mxGeometry>
        </mxCell>
        <mxCell id="FtLIaecBliiWp28A2eXK-48" style="edgeStyle=none;curved=1;rounded=0;orthogonalLoop=1;jettySize=auto;html=1;exitX=1;exitY=0;exitDx=0;exitDy=0;entryX=0.5;entryY=1;entryDx=0;entryDy=0;fontSize=12;startSize=8;endSize=8;" edge="1" parent="1" source="FtLIaecBliiWp28A2eXK-42" target="FtLIaecBliiWp28A2eXK-44">
          <mxGeometry relative="1" as="geometry" />
        </mxCell>
        <mxCell id="FtLIaecBliiWp28A2eXK-42" value="&lt;div&gt;Track&lt;/div&gt;" style="whiteSpace=wrap;html=1;align=center;" vertex="1" parent="1">
          <mxGeometry x="641" y="450" width="100" height="31" as="geometry" />
        </mxCell>
        <mxCell id="FtLIaecBliiWp28A2eXK-43" value="&lt;u&gt;ID&lt;/u&gt;" style="ellipse;whiteSpace=wrap;html=1;align=center;" vertex="1" parent="1">
          <mxGeometry x="444" y="508" width="100" height="40" as="geometry" />
        </mxCell>
        <mxCell id="FtLIaecBliiWp28A2eXK-44" value="Duration" style="ellipse;whiteSpace=wrap;html=1;align=center;" vertex="1" parent="1">
          <mxGeometry x="570" y="537" width="100" height="40" as="geometry" />
        </mxCell>
        <mxCell id="FtLIaecBliiWp28A2eXK-45" value="Title" style="ellipse;whiteSpace=wrap;html=1;align=center;" vertex="1" parent="1">
          <mxGeometry x="441" y="418" width="100" height="40" as="geometry" />
        </mxCell>
        <mxCell id="FtLIaecBliiWp28A2eXK-53" style="edgeStyle=none;curved=1;rounded=0;orthogonalLoop=1;jettySize=auto;html=1;exitX=0;exitY=0;exitDx=0;exitDy=0;entryX=1;entryY=1;entryDx=0;entryDy=0;fontSize=12;startSize=8;endSize=8;" edge="1" parent="1" source="FtLIaecBliiWp28A2eXK-49" target="FtLIaecBliiWp28A2eXK-50">
          <mxGeometry relative="1" as="geometry" />
        </mxCell>
        <mxCell id="FtLIaecBliiWp28A2eXK-54" style="edgeStyle=none;curved=1;rounded=0;orthogonalLoop=1;jettySize=auto;html=1;exitX=0.5;exitY=0;exitDx=0;exitDy=0;entryX=0.5;entryY=1;entryDx=0;entryDy=0;fontSize=12;startSize=8;endSize=8;" edge="1" parent="1" source="FtLIaecBliiWp28A2eXK-49" target="FtLIaecBliiWp28A2eXK-51">
          <mxGeometry relative="1" as="geometry" />
        </mxCell>
        <mxCell id="FtLIaecBliiWp28A2eXK-55" style="edgeStyle=none;curved=1;rounded=0;orthogonalLoop=1;jettySize=auto;html=1;exitX=1;exitY=0;exitDx=0;exitDy=0;entryX=0;entryY=1;entryDx=0;entryDy=0;fontSize=12;startSize=8;endSize=8;" edge="1" parent="1" source="FtLIaecBliiWp28A2eXK-49" target="FtLIaecBliiWp28A2eXK-52">
          <mxGeometry relative="1" as="geometry" />
        </mxCell>
        <mxCell id="FtLIaecBliiWp28A2eXK-49" value="Playlist" style="whiteSpace=wrap;html=1;align=center;" vertex="1" parent="1">
          <mxGeometry x="641" y="164" width="100" height="40" as="geometry" />
        </mxCell>
        <mxCell id="FtLIaecBliiWp28A2eXK-50" value="&lt;u&gt;ID&lt;/u&gt;" style="ellipse;whiteSpace=wrap;html=1;align=center;" vertex="1" parent="1">
          <mxGeometry x="526" y="94" width="100" height="40" as="geometry" />
        </mxCell>
        <mxCell id="FtLIaecBliiWp28A2eXK-51" value="Name" style="ellipse;whiteSpace=wrap;html=1;align=center;" vertex="1" parent="1">
          <mxGeometry x="641" y="97" width="100" height="40" as="geometry" />
        </mxCell>
        <mxCell id="FtLIaecBliiWp28A2eXK-52" value="&lt;div&gt;Creation date&lt;/div&gt;" style="ellipse;whiteSpace=wrap;html=1;align=center;" vertex="1" parent="1">
          <mxGeometry x="753" y="97" width="100" height="40" as="geometry" />
        </mxCell>
        <mxCell id="FtLIaecBliiWp28A2eXK-56" value="has" style="shape=rhombus;perimeter=rhombusPerimeter;whiteSpace=wrap;html=1;align=center;" vertex="1" parent="1">
          <mxGeometry x="372" y="167" width="120" height="60" as="geometry" />
        </mxCell>
        <mxCell id="FtLIaecBliiWp28A2eXK-57" value="" style="endArrow=none;html=1;rounded=0;fontSize=12;startSize=8;endSize=8;curved=1;exitX=1;exitY=0.5;exitDx=0;exitDy=0;entryX=0;entryY=0.5;entryDx=0;entryDy=0;" edge="1" parent="1" source="FtLIaecBliiWp28A2eXK-1" target="FtLIaecBliiWp28A2eXK-56">
          <mxGeometry width="50" height="50" relative="1" as="geometry">
            <mxPoint x="424" y="319" as="sourcePoint" />
            <mxPoint x="474" y="269" as="targetPoint" />
          </mxGeometry>
        </mxCell>
        <mxCell id="FtLIaecBliiWp28A2eXK-58" value="" style="endArrow=none;html=1;rounded=0;fontSize=12;startSize=8;endSize=8;curved=1;exitX=1;exitY=0.5;exitDx=0;exitDy=0;entryX=0;entryY=0.5;entryDx=0;entryDy=0;" edge="1" parent="1" source="FtLIaecBliiWp28A2eXK-56" target="FtLIaecBliiWp28A2eXK-49">
          <mxGeometry width="50" height="50" relative="1" as="geometry">
            <mxPoint x="264" y="211" as="sourcePoint" />
            <mxPoint x="382" y="207" as="targetPoint" />
          </mxGeometry>
        </mxCell>
        <mxCell id="FtLIaecBliiWp28A2eXK-59" value="contains" style="shape=rhombus;perimeter=rhombusPerimeter;whiteSpace=wrap;html=1;align=center;" vertex="1" parent="1">
          <mxGeometry x="631" y="300" width="120" height="60" as="geometry" />
        </mxCell>
        <mxCell id="FtLIaecBliiWp28A2eXK-60" value="" style="endArrow=none;html=1;rounded=0;fontSize=12;startSize=8;endSize=8;curved=1;entryX=0.5;entryY=1;entryDx=0;entryDy=0;exitX=0.5;exitY=0;exitDx=0;exitDy=0;" edge="1" parent="1" source="FtLIaecBliiWp28A2eXK-42" target="FtLIaecBliiWp28A2eXK-59">
          <mxGeometry width="50" height="50" relative="1" as="geometry">
            <mxPoint x="619" y="450" as="sourcePoint" />
            <mxPoint x="669" y="400" as="targetPoint" />
          </mxGeometry>
        </mxCell>
        <mxCell id="FtLIaecBliiWp28A2eXK-61" value="" style="endArrow=none;html=1;rounded=0;fontSize=12;startSize=8;endSize=8;curved=1;entryX=0.5;entryY=1;entryDx=0;entryDy=0;exitX=0.5;exitY=0;exitDx=0;exitDy=0;" edge="1" parent="1" source="FtLIaecBliiWp28A2eXK-59" target="FtLIaecBliiWp28A2eXK-49">
          <mxGeometry width="50" height="50" relative="1" as="geometry">
            <mxPoint x="619" y="450" as="sourcePoint" />
            <mxPoint x="669" y="400" as="targetPoint" />
          </mxGeometry>
        </mxCell>
        <mxCell id="FtLIaecBliiWp28A2eXK-62" value="has" style="shape=rhombus;perimeter=rhombusPerimeter;whiteSpace=wrap;html=1;align=center;" vertex="1" parent="1">
          <mxGeometry x="981" y="433" width="120" height="60" as="geometry" />
        </mxCell>
        <mxCell id="FtLIaecBliiWp28A2eXK-63" value="made by" style="shape=rhombus;perimeter=rhombusPerimeter;whiteSpace=wrap;html=1;align=center;" vertex="1" parent="1">
          <mxGeometry x="802" y="508" width="120" height="60" as="geometry" />
        </mxCell>
        <mxCell id="FtLIaecBliiWp28A2eXK-64" value="" style="endArrow=none;html=1;rounded=0;fontSize=12;startSize=8;endSize=8;curved=1;entryX=0.5;entryY=1;entryDx=0;entryDy=0;exitX=0.5;exitY=0;exitDx=0;exitDy=0;" edge="1" parent="1" source="FtLIaecBliiWp28A2eXK-24" target="FtLIaecBliiWp28A2eXK-62">
          <mxGeometry width="50" height="50" relative="1" as="geometry">
            <mxPoint x="989" y="592" as="sourcePoint" />
            <mxPoint x="1039" y="542" as="targetPoint" />
          </mxGeometry>
        </mxCell>
        <mxCell id="FtLIaecBliiWp28A2eXK-66" value="" style="endArrow=none;html=1;rounded=0;fontSize=12;startSize=8;endSize=8;curved=1;entryX=0.5;entryY=0;entryDx=0;entryDy=0;exitX=0.5;exitY=1;exitDx=0;exitDy=0;" edge="1" parent="1" source="FtLIaecBliiWp28A2eXK-33" target="FtLIaecBliiWp28A2eXK-62">
          <mxGeometry width="50" height="50" relative="1" as="geometry">
            <mxPoint x="989" y="592" as="sourcePoint" />
            <mxPoint x="1039" y="542" as="targetPoint" />
          </mxGeometry>
        </mxCell>
        <mxCell id="FtLIaecBliiWp28A2eXK-67" value="" style="endArrow=none;html=1;rounded=0;fontSize=12;startSize=8;endSize=8;curved=1;exitX=0;exitY=0;exitDx=0;exitDy=0;entryX=1;entryY=0.5;entryDx=0;entryDy=0;" edge="1" parent="1" source="FtLIaecBliiWp28A2eXK-24" target="FtLIaecBliiWp28A2eXK-63">
          <mxGeometry width="50" height="50" relative="1" as="geometry">
            <mxPoint x="989" y="592" as="sourcePoint" />
            <mxPoint x="1039" y="542" as="targetPoint" />
          </mxGeometry>
        </mxCell>
        <mxCell id="FtLIaecBliiWp28A2eXK-68" value="" style="endArrow=none;html=1;rounded=0;fontSize=12;startSize=8;endSize=8;curved=1;exitX=0;exitY=0.5;exitDx=0;exitDy=0;entryX=1;entryY=1;entryDx=0;entryDy=0;" edge="1" parent="1" source="FtLIaecBliiWp28A2eXK-63" target="FtLIaecBliiWp28A2eXK-42">
          <mxGeometry width="50" height="50" relative="1" as="geometry">
            <mxPoint x="989" y="592" as="sourcePoint" />
            <mxPoint x="1039" y="542" as="targetPoint" />
          </mxGeometry>
        </mxCell>
        <mxCell id="FtLIaecBliiWp28A2eXK-69" value="contains" style="shape=rhombus;perimeter=rhombusPerimeter;whiteSpace=wrap;html=1;align=center;" vertex="1" parent="1">
          <mxGeometry x="824" y="338" width="120" height="60" as="geometry" />
        </mxCell>
        <mxCell id="FtLIaecBliiWp28A2eXK-71" value="" style="endArrow=none;html=1;rounded=0;fontSize=12;startSize=8;endSize=8;curved=1;entryX=0;entryY=1;entryDx=0;entryDy=0;exitX=1;exitY=0.5;exitDx=0;exitDy=0;" edge="1" parent="1" source="FtLIaecBliiWp28A2eXK-69" target="FtLIaecBliiWp28A2eXK-33">
          <mxGeometry width="50" height="50" relative="1" as="geometry">
            <mxPoint x="858" y="506" as="sourcePoint" />
            <mxPoint x="908" y="456" as="targetPoint" />
          </mxGeometry>
        </mxCell>
        <mxCell id="FtLIaecBliiWp28A2eXK-72" value="" style="endArrow=none;html=1;rounded=0;fontSize=12;startSize=8;endSize=8;curved=1;exitX=1;exitY=0;exitDx=0;exitDy=0;entryX=0;entryY=0.5;entryDx=0;entryDy=0;" edge="1" parent="1" source="FtLIaecBliiWp28A2eXK-42" target="FtLIaecBliiWp28A2eXK-69">
          <mxGeometry width="50" height="50" relative="1" as="geometry">
            <mxPoint x="858" y="506" as="sourcePoint" />
            <mxPoint x="810" y="378" as="targetPoint" />
          </mxGeometry>
        </mxCell>
        <mxCell id="FtLIaecBliiWp28A2eXK-73" value="" style="endArrow=none;html=1;rounded=0;fontSize=12;startSize=8;endSize=8;curved=1;exitX=1.013;exitY=0.624;exitDx=0;exitDy=0;entryX=0.028;entryY=0.57;entryDx=0;entryDy=0;exitPerimeter=0;entryPerimeter=0;" edge="1" parent="1" source="FtLIaecBliiWp28A2eXK-1" target="FtLIaecBliiWp28A2eXK-56">
          <mxGeometry width="50" height="50" relative="1" as="geometry">
            <mxPoint x="264" y="211" as="sourcePoint" />
            <mxPoint x="382" y="207" as="targetPoint" />
          </mxGeometry>
        </mxCell>
        <mxCell id="FtLIaecBliiWp28A2eXK-74" value="1" style="text;html=1;align=center;verticalAlign=middle;resizable=0;points=[];autosize=1;strokeColor=none;fillColor=none;fontSize=16;" vertex="1" parent="1">
          <mxGeometry x="480.5" y="164" width="27" height="31" as="geometry" />
        </mxCell>
        <mxCell id="FtLIaecBliiWp28A2eXK-75" value="N" style="text;html=1;align=center;verticalAlign=middle;resizable=0;points=[];autosize=1;strokeColor=none;fillColor=none;fontSize=16;" vertex="1" parent="1">
          <mxGeometry x="356" y="168.5" width="30" height="31" as="geometry" />
        </mxCell>
        <mxCell id="FtLIaecBliiWp28A2eXK-76" value="N" style="text;html=1;align=center;verticalAlign=middle;resizable=0;points=[];autosize=1;strokeColor=none;fillColor=none;fontSize=16;" vertex="1" parent="1">
          <mxGeometry x="686" y="350.5" width="30" height="31" as="geometry" />
        </mxCell>
        <mxCell id="FtLIaecBliiWp28A2eXK-77" value="N" style="text;html=1;align=center;verticalAlign=middle;resizable=0;points=[];autosize=1;strokeColor=none;fillColor=none;fontSize=16;" vertex="1" parent="1">
          <mxGeometry x="682.5" y="275.5" width="30" height="31" as="geometry" />
        </mxCell>
        <mxCell id="FtLIaecBliiWp28A2eXK-78" value="" style="endArrow=none;html=1;rounded=0;fontSize=12;startSize=8;endSize=8;curved=1;exitX=0.055;exitY=0.462;exitDx=0;exitDy=0;entryX=1;entryY=0.75;entryDx=0;entryDy=0;exitPerimeter=0;" edge="1" parent="1" source="FtLIaecBliiWp28A2eXK-63" target="FtLIaecBliiWp28A2eXK-42">
          <mxGeometry width="50" height="50" relative="1" as="geometry">
            <mxPoint x="812" y="548" as="sourcePoint" />
            <mxPoint x="751" y="491" as="targetPoint" />
          </mxGeometry>
        </mxCell>
        <mxCell id="FtLIaecBliiWp28A2eXK-79" value="N" style="text;html=1;align=center;verticalAlign=middle;resizable=0;points=[];autosize=1;strokeColor=none;fillColor=none;fontSize=16;" vertex="1" parent="1">
          <mxGeometry x="917" y="512.5" width="30" height="31" as="geometry" />
        </mxCell>
        <mxCell id="FtLIaecBliiWp28A2eXK-80" value="M" style="text;html=1;align=center;verticalAlign=middle;resizable=0;points=[];autosize=1;strokeColor=none;fillColor=none;fontSize=16;" vertex="1" parent="1">
          <mxGeometry x="788.5" y="502.5" width="31" height="31" as="geometry" />
        </mxCell>
      </root>
    </mxGraphModel>
  </diagram>
</mxfile>
